# xmcd CD database file
#
# Track frame offsets:
#	182
#	50435
#	93902
#	119425
#	157412
#	201000
#	233115
#
# Disc length: 3606 seconds
#
# Revision: 0
# Processed by: cddbd v1.5.2PL0 Copyright (c) Steve Scherf et al.
# Submitted via: CDex 1.51
#
DISCID=5b0e1407
DTITLE=Kenny Werner - Meditations
DYEAR=1993
DGENRE=Jazz
TTITLE0=Meditations Nr. 1
TTITLE1=The Contemplation Suite
TTITLE2=Stella By Starlight
TTITLE3=Meditations Nr. 2
TTITLE4=Melodee Nr. 2
TTITLE5=Meditations Nr. 3
TTITLE6=Giant Steps
EXTD=YEAR: 1993
EXTT0=
EXTT1=
EXTT2=
EXTT3=
EXTT4=
EXTT5=
EXTT6=
PLAYORDER=
